# xmcd
#
# Track frame offsets: 
#        187
#        54512
#        103355
#        131467
#        153677
#
# Disc length: 2382 seconds
#
# Revision: 2
# Processed by: cddbd v1.5.2PL0 Copyright (c) Steve Scherf et al.
# Submitted via: ExactAudioCopy v1.0b3
#
DISCID=42094c05
DTITLE=John Coltrane - Soultrane
DYEAR=1958
DGENRE=Jazz
TTITLE0=Good Bait
TTITLE1=I Want to Talk About You
TTITLE2=You Say You Care
TTITLE3=Theme For Ernie
TTITLE4=Russian Lullaby
EXTD=YEAR: 1958
EXTT0=
EXTT1=
EXTT2=
EXTT3=
EXTT4=
PLAYORDER=
